<?xml version="1.0" encoding="UTF-8"?>
<svg version="1.1" xmlns="http://www.w3.org/2000/svg" width="225" height="225">
<path d="M0 0 C74.25 0 148.5 0 225 0 C225 74.25 225 148.5 225 225 C150.75 225 76.5 225 0 225 C0 150.75 0 76.5 0 0 Z " fill="#FEFEFE" transform="translate(0,0)"/>
<path d="M0 0 C4.53433099 -0.29914389 9.06281824 -0.5154026 13.60473633 -0.65917969 C15.14481665 -0.71913886 16.68422475 -0.80075526 18.22192383 -0.90527344 C30.925685 -1.74641829 30.925685 -1.74641829 35.78466797 2.34448242 C38.11304681 5.45425537 40.05646427 8.63838198 42 12 C43.37198946 13.8616089 44.77232581 15.70273284 46.203125 17.51953125 C46.8734375 18.39673828 47.54375 19.27394531 48.234375 20.17773438 C49.59331895 21.95410588 50.95270356 23.73014035 52.3125 25.50585938 C52.97765625 26.37662109 53.6428125 27.24738281 54.328125 28.14453125 C55.27655273 29.38517334 55.27655273 29.38517334 56.24414062 30.65087891 C57.81945552 32.75845398 59.31497467 34.90065418 60.796875 37.07421875 C62.73794347 40.2279981 62.73794347 40.2279981 66 41 C66.20238281 40.46890625 66.40476562 39.9378125 66.61328125 39.390625 C68.60452428 35.95783421 71.3446492 33.49100784 74.1875 30.75 C78.46568097 26.55614124 82.5800299 22.32695987 86.4609375 17.7578125 C88.59808248 15.31691087 90.91275735 13.07661383 93.2265625 10.8046875 C95.8113684 8.17433436 98.21169781 5.39538237 100.6171875 2.6015625 C101.38570483 1.71147181 102.16847119 0.83152881 103 0 C105.67058851 -0.14115161 108.32432238 -0.04247107 111 0 C109.45872649 3.71268094 107.19156766 5.98115698 104.3125 8.75 C100.566925 12.4148514 97.04938216 16.15774778 93.64453125 20.13671875 C91.99601248 22.00451793 90.27696419 23.75455624 88.5 25.5 C85.47737847 28.47560297 82.67956474 31.58978143 79.91015625 34.80078125 C76.33261986 38.91970352 72.65777668 42.95239224 69 47 C72.96077534 53.04511338 77.07195025 58.94412948 81.375 64.75 C81.97151367 65.55783936 82.56802734 66.36567871 83.18261719 67.19799805 C87.81290074 73.44816223 92.522553 79.63566863 97.25 85.8125 C101.89792606 91.89120128 106.52392695 97.98068967 111 104.1875 C111.62310059 105.04275269 111.62310059 105.04275269 112.25878906 105.9152832 C115 109.75909408 115 109.75909408 115 112 C87.11401296 114.99523343 87.11401296 114.99523343 79.25634766 110.39306641 C74.85718736 106.16229502 72.10742334 100.99714866 69.38427734 95.58740234 C67.19313201 91.49185415 64.36465996 87.95306954 61.5 84.3125 C60.56978475 83.08178804 59.64256787 81.84880254 58.71875 80.61328125 C58.28175781 80.03271973 57.84476563 79.4521582 57.39453125 78.85400391 C54.92598411 75.57211543 52.46321147 72.28589401 50 69 C47.0510636 70.4153983 44.97739128 71.77499224 42.6875 74.125 C42.15511719 74.66382813 41.62273437 75.20265625 41.07421875 75.7578125 C39.2535191 77.7259511 37.48881495 79.72642012 35.73046875 81.75 C31.49505521 86.61148886 27.08010211 91.29226999 22.63842773 95.96484375 C19.76985275 98.9952031 16.9344345 102.01298716 14.30859375 105.2578125 C8.99809934 111.74123351 8.99809934 111.74123351 5.6796875 112.6015625 C3.4375 112.625 3.4375 112.625 0 112 C1.33999498 108.993182 2.79845291 107.00237391 5.1875 104.75 C7.69734183 102.37534872 9.9956296 99.88519561 12.2578125 97.27734375 C15.95847663 93.01531809 19.80275782 88.9064426 23.6875 84.8125 C30.51338266 77.59152707 37.27934057 70.31889995 44 63 C42.74208088 59.52657365 41.325205 56.84467997 39.0234375 53.9609375 C38.14751953 52.85214233 38.14751953 52.85214233 37.25390625 51.72094727 C36.32384766 50.55970337 36.32384766 50.55970337 35.375 49.375 C34.08991558 47.74706415 32.80605304 46.11816299 31.5234375 44.48828125 C30.90823242 43.70791504 30.29302734 42.92754883 29.65917969 42.12353516 C27.08309666 38.82648246 24.63385251 35.44605198 22.1953125 32.046875 C19.12009641 27.77878149 15.99661885 23.54672286 12.875 19.3125 C12.28847656 18.51593994 11.70195313 17.71937988 11.09765625 16.89868164 C10.52660156 16.12387451 9.95554687 15.34906738 9.3671875 14.55078125 C8.80999023 13.79361816 8.25279297 13.03645508 7.67871094 12.25634766 C6.54371138 10.73079997 5.39549386 9.21501181 4.23535156 7.70849609 C3.68588867 6.99387207 3.13642578 6.27924805 2.5703125 5.54296875 C2.07547363 4.90770264 1.58063477 4.27243652 1.07080078 3.61791992 C0 2 0 2 0 0 Z " fill="#0A0A0A" transform="translate(56,55)"/>
<path d="M0 0 C5.7344 -1.18714576 11.36853394 -2.0253412 17 0 C22.34598153 4.265027 25.74479414 10.57056213 29.29833984 16.31445312 C31.98600624 20.5561074 34.99110481 24.54562073 38 28.5625 C38.5770166 29.34657227 39.1540332 30.13064453 39.74853516 30.93847656 C44.31989833 37.1485821 49.04975074 43.22549215 53.81152344 49.29003906 C58.49155165 55.2786883 62.95564013 61.40459192 67.37597656 67.58642578 C70.60967107 72.10107672 73.90593699 76.55186457 77.3125 80.9375 C90 97.27966448 90 97.27966448 90 99 C83.9997773 99.82355998 77.93521378 100.56126573 72 99 C68.01870706 95.68769481 65.92889187 91.78472264 63.40966797 87.31591797 C60.62421358 82.73974542 57.22524447 78.59645486 53.9375 74.375 C52.54142898 72.55326229 51.14685649 70.73037506 49.75390625 68.90625 C49.1005127 68.05289063 48.44711914 67.19953125 47.77392578 66.3203125 C43.08869926 60.19198978 38.47379503 54.01235573 33.91015625 47.79296875 C26.27153983 37.38492988 18.53151411 27.06193553 10.69140625 16.8046875 C9.78092529 15.61117676 9.78092529 15.61117676 8.85205078 14.39355469 C7.57642721 12.7449634 6.28189652 11.11088657 4.97216797 9.48925781 C4.00947998 8.29187988 4.00947998 8.29187988 3.02734375 7.0703125 C2.15517212 6.00321045 2.15517212 6.00321045 1.26538086 4.91455078 C0 3 0 3 0 0 Z " fill="#F8F8F8" transform="translate(69,61)"/>
</svg>
